<svg xmlns="http://www.w3.org/2000/svg"  viewBox="0 0 100 100" width="100px" height="100px"><path fill="#60be92" d="M70,19H31c-6.6,0-12,5.4-12,12v39c0,6.6,5.4,12,12,12h39c6.6,0,12-5.4,12-12V31 C82,24.4,76.6,19,70,19z"/><path fill="#1f212b" d="M69.986,82.988h-39c-7.18,0-13-5.82-13-13v-39c0-7.18,5.82-13,13-13h39c7.18,0,13,5.82,13,13v39 C82.986,77.168,77.165,82.988,69.986,82.988z M19.986,30.988v39c0,6.075,4.925,11,11,11h39c6.075,0,11-4.925,11-11v-39 c0-6.075-4.925-11-11-11h-39C24.91,19.988,19.986,24.913,19.986,30.988z"/><path fill="#1f212b" d="M67.148,77.988H33.823c-5.985,0-10.837-4.852-10.837-10.837V33.825 c0-5.985,4.852-10.837,10.837-10.837h33.663c0.276,0,0.5,0.224,0.5,0.5s-0.224,0.5-0.5,0.5H33.823 c-5.433,0-9.837,4.404-9.837,9.837V67.15c0,5.433,4.405,9.838,9.838,9.838h33.325c5.433,0,9.837-4.404,9.837-9.837V48.488 c0-0.276,0.224-0.5,0.5-0.5s0.5,0.224,0.5,0.5V67.15C77.986,73.136,73.133,77.988,67.148,77.988z M77.486,45.567 c-0.276,0-0.5-0.224-0.5-0.5v-4c0-0.276,0.224-0.5,0.5-0.5s0.5,0.224,0.5,0.5v4C77.986,45.344,77.762,45.567,77.486,45.567z M77.486,39.567c-0.276,0-0.5-0.224-0.5-0.5v-2c0-0.276,0.224-0.5,0.5-0.5s0.5,0.224,0.5,0.5v2 C77.986,39.344,77.762,39.567,77.486,39.567z"/><path fill="#fff" d="M50.5,31.5c-12.15,0-22,8.059-22,18c0,6.461,4.163,12.125,10.413,15.3 c-0.243,1.584-1.022,3.907-3.413,5.7c0,0,6.014-1.071,8.515-3.796c2.05,0.517,4.228,0.796,6.485,0.796c12.15,0,22-8.059,22-18 C72.5,39.559,62.65,31.5,50.5,31.5z"/><path fill="none" stroke="#1f212b" stroke-linecap="round" stroke-linejoin="round" stroke-miterlimit="10" d="M50.5,31.5 c-12.15,0-22,8.059-22,18c0,6.461,4.163,12.125,10.413,15.3c-0.243,1.584-1.022,3.907-3.413,5.7c0,0,6.014-1.071,8.515-3.796 c2.05,0.517,4.228,0.796,6.485,0.796c12.15,0,22-8.059,22-18C72.5,39.559,62.65,31.5,50.5,31.5z"/></svg>